# xmcd
#
# Track frame offsets:
#	150
#	24285
#	45766
#	78439
#	104202
#	125548
#	156937
#	181548
#	195622
#	219777
#	245423
#	271008
#
# Disc length: 3670 seconds
#
# Revision: 1
# Processed by: cddbd v1.5.2PL0 Copyright (c) Steve Scherf et al.
# Submitted via: audiograbber 1.83.01
#
DISCID=8f0e540c
DTITLE=Thomas Barnett - Frequencies From The Abyss
DYEAR=1999
DGENRE=Electronic
TTITLE0=Island Voyage
TTITLE1=Low Earth Orbit
TTITLE2=The Exodus
TTITLE3=Alien Germ Warfare
TTITLE4=Look At Me 4
TTITLE5=Do Bionics Crystalize?
TTITLE6=Neon Membrane
TTITLE7=Ravish
TTITLE8=Electrolifica 01
TTITLE9=Feel It
TTITLE10=Look At Me
TTITLE11=Wave's End
EXTD=
EXTT0=
EXTT1=
EXTT2=
EXTT3=
EXTT4=
EXTT5=
EXTT6=
EXTT7=
EXTT8=
EXTT9=
EXTT10=
EXTT11=
PLAYORDER=
